<svg xmlns="http://www.w3.org/2000/svg" width="1040" height="554" viewBox="0 0 1040 554">
  <g fill="none" fill-rule="evenodd">
    <g fill-rule="nonzero">
      <path d="M960.3 438a1000 1000 0 0 1-8.8 18.6l-2.3 4.7a1481 1481 0 0 1-23.4 46 73.1 73.1 0 0 1-63.8 38.6l-151.4 1.7H709l-13 .1-11.1.1-34 .4h-1.5l-17.3.2h-.5l-106.9 1.1-95.4 1-11 .2-69 .7-44.8.5h-.5l-141.3 1.5-42.3.5a87.8 87.8 0 0 1-65.6-28.6 199.5 199.5 0 0 1-44-79.8C-19.8 341.3 17.7 207 85.2 117l8.7-11c20.8-25.6 44-46.9 68.9-62 44-27 92.6-34.5 140.5-12a314.1 314.1 0 0 0 126.1 31.1C513.5 66 592.3 35.5 685 16l11.1-2.2a608 608 0 0 1 226.5-5.5 188.7 188.7 0 0 1 37.8 10.4c41.6 16.9 64.3 48.2 73.9 87.4 1 3.6 1.7 7.3 2.4 11.1 17 94.3-33 228.1-76.3 321Z" fill="#F2F2F2" />
      <path d="M496.4 445.5c-.4 3.7-1 7.4-1.9 11h93.6v-11h-91.7Zm-78.2 62.8 11.1-.1v-27.5l-11-.5v28Zm-232.6-62.8v11H384v-11H185.6ZM1034.2 106h-73.9V18.6c-3.5-1.5-7.2-2.8-11-4V106H696V13.6L684.9 16V106H429.3V63.2l-11-.5V106H162.6V44a276.8 276.8 0 0 0-68.9 62v.1c-3 3.6-5.8 7.3-8.7 11h8.7v328.4h-83l3.7 11h79.3v93.7a86.8 86.8 0 0 0 26.6 3.8l42.2-.5v-97h255.6v94.2h11.1v-94.1H685v91.3l11.1-.1v-91.2h253.2v4.7l2.3-4.7a2378.6 2378.6 0 0 0 8.8-18.5V117h76.3c-.7-3.7-1.4-7.5-2.4-11ZM162.7 445.5V117h255.5v328.4H162.7Zm266.7 0V117h255.5v328.4H429.4Zm519.8 0H696V117h253.2v328.4Z" fill="#000" opacity=".1" />
      <path fill="#65617D" d="M862 533.5v13l-151.7 1.4h-1.6l-57.7.5-1.4.1-17.5.1h-.5l-106.9 1-175.4 1.6h-.1l-44.6.4-.5.1-198.2 1.8v-15l46.6-28 93.5-.8h4.7l44.9-.4h4.6l14.4-.2h.4l35.5-.3h.3l277-2.3 6.8-.1h5.9l37.6-.3 2-.1h2.8l11.7-.1h5.4l9.7-.1 15.5-.1 2-.1h4.1l74.6-.6z" />
      <path fill="#000" opacity=".2" d="M862 533.5v13l-151.7 1.4h-1.6l-57.7.5-1.4.1-17.5.1h-.5l-106.9 1-175.4 1.6h-.1l-44.6.4-.5.1-198.2 1.8v-15l46.6-28 93.5-.8h4.7l44.9-.4h4.6l14.4-.2h.4l35.5-.3h.3l277-2.3 6.8-.1h5.9l37.6-.3 2-.1h2.8l11.7-.1h5.4l9.7-.1 15.5-.1 2-.1h4.1l74.6-.6z" />
      <path d="M295.7 483.5V508a6.1 6.1 0 0 1-6 6.1l-34.8.8a6.1 6.1 0 0 1-6.3-6.1v-25.3h47.1Z" fill="#3F3D56" />
      <path d="M295.7 483.5V508a6.1 6.1 0 0 1-6 6.1l-34.8.8a6.1 6.1 0 0 1-6.3-6.1v-25.3h47.1Z" fill="#000" opacity=".1" />
      <path d="M297.7 483.5V508a6.1 6.1 0 0 1-6 6.1l-34.8.8a6.1 6.1 0 0 1-6.3-6.1v-25.3h47.1Zm382.4 0h47V515h-47v-31.5Z" fill="#3F3D56" />
      <path fill="#000" opacity=".1" d="M680.1 483.5h47.1V515h-47.1z" />
      <path fill="#3F3D56" d="M678.1 483.5h47.1V515h-47.1z" />
      <path fill="#000" opacity=".1" d="M297.7 483.5v5l-47.1 1.2v-6.2z" />
      <path d="M380.9 312.2v168.2a4 4 0 0 1-3.9 4l-191.4 5a4 4 0 0 1-4-3.9V312.2a4 4 0 0 1 4-3.9h191.3a4 4 0 0 1 4 4Z" fill="#65617D" />
      <path d="M185.6 308.3v181.2a4 4 0 0 1-4-4V312.2a4 4 0 0 1 4-3.9Z" fill="#000" opacity=".1" />
      <path fill="#39374D" d="M194.3 319h177.3v148.2l-177.3 4z" />
      <path fill="#000" opacity=".1" d="M725.2 483.5v6.4l-47.1-1.3v-5.1z" />
      <path d="M787.4 312.2v173.3a4 4 0 0 1-4 4l-191.5-5.1a4 4 0 0 1-3.8-4V312.2a4 4 0 0 1 4-3.9h191.3a4 4 0 0 1 4 4Z" fill="#65617D" />
      <path d="M787.4 312.2v173.3a4 4 0 0 1-4 4V308.3a4 4 0 0 1 4 4Z" fill="#000" opacity=".1" />
      <path fill="#39374D" d="M774.6 319H597.3v148.2l177.3 4z" />
      <path d="M583.1 312.2v168.2a4 4 0 0 1-3.8 4l-191.4 5a4 4 0 0 1-4-3.9V312.2a4 4 0 0 1 4-3.9h191.3a4 4 0 0 1 4 4Z" fill="#65617D" />
      <path fill="#4267B2" d="M396.6 319h177.3v148.2l-177.3 4z" />
      <path fill="#000" opacity=".1" d="M862 533.5v13l-151.7 1.4h-1.6l-57.7.5-1.4.1-17.5.1h-.5l-106.9 1-175.4 1.6h-.1l-44.6.4-.5.1-198.2 1.8v-15l202.3-1.4h.5l40.9-.2h.2l282.8-1.9h7.1l74.4-.5 4.4-.1h1z" />
      <circle fill="#FBBEBE" cx="486.7" cy="298" r="51.3" />
      <path d="M538 377s-99.4 12-90 0c3.5-4.3 4.4-17.2 4.2-31.8 0-4.5-.2-9-.4-13.7-1.1-22-3.8-43.4-3.8-43.4s87-41 77-8.5c-4 13-2.7 31.5.3 48.8.9 5 2 10 3 14.7 2.6 11.5 5.8 22.8 9.6 34Z" fill="#FBBEBE" />
      <path d="M505.5 373c11.5-2.2 23.7-6 34.5-1.6 2.8 1.2 5.4 2.9 8.4 3.9 2.9 1 6 1.2 9.1 1.9a40.7 40.7 0 0 1 24.9 20 121 121 0 0 1 11.2 30.7l7 25.8c6 22.5 12 45.1 13.3 68.3-83.4 4.8-167 5.3-250.5 1.4 5.4-10.3 11-21.3 10.5-33-.5-11.6-7.2-23.2-4.8-34.7 1.6-7.3 6.6-13.4 9.7-20.2 8.7-19.5 1.9-45.8 17.3-60.6 6.9-6.7 17-9.2 26.6-9 12.2.5 24.8 4.3 37 6.2a135 135 0 0 0 45.8.9Z" fill="#FF6584" />
      <path d="M636.2 484.1v1.5l-.2 2.3-1.4 18.5-1.6 22.3-.4 6.3-1 13.4v.2l-106.9 1-175.4 2v.8h-.1v-1.2l.4-14.3.9-28 .7-23.9.1-2.3a10.5 10.5 0 0 1 11.4-10.2l18.2 1.4 3 .2c42.2 3 120.4 6.8 199.2 2 13.9-.8 27.7-1.9 41.6-3.3a10.5 10.5 0 0 1 11.5 11.3Z" fill="#000" opacity=".1" />
      <path d="M349.3 552.4v-.9l175.4-1.9 106.9-1h.3v-.2l1-13.4.4-6 1.6-22.6 1.3-17.9v-.4a10.6 10.6 0 0 0-2-7.2 10.5 10.5 0 0 0-9.5-4 935.4 935.4 0 0 1-41.5 3.3c-78.9 4.7-157 .9-199.3-2l-3-.3-18.1-1.4a10.5 10.5 0 0 0-11.4 10.2l-.7 22.2-1 28-.4 14.4v1Z" fill="#3F3D56" />
      <path d="m636.5 491.1-1.2 15.3-1.8 22.9-.5 5.7-1 12.8v.8l-.2 1.5.1-1.5h-.3l-106.8 1-175.5 2v-.4l.5-14.3 1-28 .7-18.7a6.4 6.4 0 0 1 6.8-6.2 1649 1649 0 0 0 73.5 4.3 1559.3 1559.3 0 0 0 197.8-4 6.2 6.2 0 0 1 6.6 4.2c.3.8.4 1.7.3 2.6Zm-338.8 13.7v3.2c0 2.4-1.3 4.5-3.5 5.5l-40 .8a6.1 6.1 0 0 1-3.6-5.6v-3l47.1-.9Z" fill="#000" opacity=".1" />
      <path fill="#3F3D56" d="m298.2 515.4-52.2 1v-8.7l52.2-1z" />
      <path fill="#000" opacity=".1" d="m298.2 515.4-52.2 1v-8.7l52.2-1z" />
      <path fill="#3F3D56" d="m300.2 515.4-52.2 1v-8.7l52.2-1z" />
      <path d="M678.4 506.8v3.2c0 2.4 1.3 4.5 3.5 5.5l40 .8c2.2-1 3.6-3.2 3.6-5.6v-3l-47.1-.9Z" fill="#000" opacity=".1" />
      <path fill="#000" opacity=".1" d="m677.9 517.4 52.2 1v-8.7l-52.2-1z" />
      <path d="m675.9 517.4 52.2 1v-8.7l-52.2-1v8.7ZM454.2 313.8c.1 7-3.1 13.6-5.9 20a163.6 163.6 0 0 0-12.6 74.7c.7 11 2.6 22 .7 33-1.8 10.8-8.4 21.7-19 24.8a53.7 53.7 0 0 0 57.7-2.7c8.8-6.4 15.3-15.3 21.7-24a97.9 97.9 0 0 1-13.3 44.7 103.3 103.3 0 0 0 73.5-40.8c4.3-5.8 8-12.2 9.7-19.3 3-13-1.2-26.5-4.5-39.4a266.2 266.2 0 0 1-6.2-33c-.4-3.6-.8-7.3.1-10.7 1-4.1 3.7-7.5 5.6-11.2a49.5 49.5 0 0 0 2.9-35 147.7 147.7 0 0 0-14-32.7c-4.5-8.5-9.3-17.3-17.5-22.3a53 53 0 0 0-16.8-5.6l-25.4-5.5a46.8 46.8 0 0 0-16.8-1.5c-9.5 1.5-16.2 8.3-22 15.4-4.6 5.4-15.8 15.7-16.6 22.8-.7 6.6 5.1 17.6 6.1 24.6 1.3 9 2.2 6 7.3 11.5 3.2 3.4 5.3 7.4 5.3 12.2Z" fill="#3F3D56" />
    </g>
    <path fill="#FFF" d="M279.8 370.7h43.6v17.7h-43.6z" />
    <path d="M240.4 428.4c-3.7 0-7.2-2-9-5.2a10.4 10.4 0 0 0 9 15.6h10.3v-10.4h-10.3Z" fill="#3ECC5F" />
    <path d="m287 373.5 36.4-2.2V366c0-5.8-4.7-10.4-10.4-10.4h-46.7l-1.3-2.3a1.5 1.5 0 0 0-2.6 0l-1.3 2.3-1.3-2.3a1.5 1.5 0 0 0-2.6 0l-1.3 2.3-1.3-2.3a1.5 1.5 0 0 0-2.6 0l-1.3 2.3-2.2-2.2a1.5 1.5 0 0 0-2.5.7l-.7 2.7-2.6-.8a1.5 1.5 0 0 0-1.9 1.9l.7 2.7-2.6.7a1.5 1.5 0 0 0-.7 2.5l2.2 2.1-2.3 1.4a1.5 1.5 0 0 0 0 2.6l2.3 1.3-2.3 1.3a1.5 1.5 0 0 0 0 2.6l2.3 1.2-2.3 1.3a1.5 1.5 0 0 0 0 2.6l2.3 1.3-2.3 1.3a1.5 1.5 0 0 0 0 2.6l2.3 1.3-2.3 1.3a1.5 1.5 0 0 0 0 2.6l2.3 1.3-2.3 1.3a1.5 1.5 0 0 0 0 2.6l2.3 1.3-2.3 1.3a1.5 1.5 0 0 0 0 2.6l2.3 1.3-2.3 1.3a1.5 1.5 0 0 0 0 2.6l2.3 1.3-2.3 1.3a1.5 1.5 0 0 0 0 2.6l2.3 1.3-2.3 1.3a1.5 1.5 0 0 0 0 2.6l2.3 1.3-2.3 1.3a1.5 1.5 0 0 0 0 2.6l2.3 1.3-2.3 1.3a1.5 1.5 0 0 0 0 2.6l2.3 1.3c0 5.8 4.6 10.4 10.3 10.4H313a10.4 10.4 0 0 0 10.4-10.4v-41.6l-36.4-2.2a5.5 5.5 0 0 1 0-11" fill="#3ECC5F" />
    <path fill="#3ECC5F" d="M302.6 438.8h15.6V418h-15.6z" />
    <path d="M328.6 425.8h-.4v-.2a2.6 2.6 0 1 0-2.6-4.5l-.2-.1a2.6 2.6 0 1 0-4.4-2.6h-.3a2.6 2.6 0 1 0-5 0h-.3a2.6 2.6 0 1 0-4.5 2.6 10.4 10.4 0 1 0 17.3 10 2.6 2.6 0 1 0 .4-5.2" fill="#44D860" />
    <path fill="#3ECC5F" d="M307.8 407.6h15.6v-10.4h-15.6z" />
    <path d="M328.6 403.7a1.3 1.3 0 1 0-.2-2.6 1.3 1.3 0 0 0-.5-2.6c-.3 0-.6.1-.8.3l-.1-.1c.2-.2.3-.5.3-.8a1.3 1.3 0 0 0-2.5-.5 5.2 5.2 0 1 0 0 10 1.3 1.3 0 1 0 2.2-1.3l.9.2a1.3 1.3 0 0 0 .5-2.5v-.1h.2" fill="#44D860" />
    <path d="M261.1 372.6c-.7 0-1.3-.6-1.3-1.3a3.9 3.9 0 1 0-7.8 0 1.3 1.3 0 1 1-2.6 0 6.5 6.5 0 1 1 13 0c0 .7-.6 1.3-1.3 1.3" fill="#000" fill-rule="nonzero" />
    <path d="M281.9 438.8h31a10.4 10.4 0 0 0 10.5-10.4V392h-31.2a10.4 10.4 0 0 0-10.3 10.4v36.4Z" fill="#FFFF50" />
    <path d="M315.6 408.1h-26a.5.5 0 0 1 0-1h26a.5.5 0 0 1 0 1m0 10.4h-26a.5.5 0 0 1 0-1h26a.5.5 0 0 1 0 1m0 10.4h-26a.5.5 0 0 1 0-1h26a.5.5 0 0 1 0 1m0-25.9h-26a.5.5 0 1 1 0-1h26a.5.5 0 0 1 0 1m0 10.3h-26a.5.5 0 0 1 0-1h26a.5.5 0 0 1 0 1m0 10.4h-26a.5.5 0 0 1 0-1h26a.5.5 0 0 1 0 1m7.8-48c-1.6 0-2.4 1.7-3 3.1-.8 1.5-1.3 2.4-2.2 2.4-1 0-1.5-1.1-2.1-2.3-.7-1.3-1.5-2.9-3.1-2.8-1.6 0-2.4 1.4-3 2.7-.8 1.3-1.2 2-2.2 2-1 0-1.5-.9-2.1-2-.7-1.1-1.5-2.4-3.1-2.4-1.6.1-2.3 1.3-3 2.3-.7 1.1-1.2 1.8-2.2 1.8-1 0-1.5-.8-2.1-1.7-.7-1-1.5-2-3-2-1.3.1-2.4.8-3 1.9-.7.8-1.2 1.4-2.2 1.4a.5.5 0 0 0 0 1c1.2 0 2.3-.7 3-1.8.6-.8 1.1-1.4 2.2-1.5 1 0 1.4.6 2.1 1.6.7 1 1.5 2 3 2.1 1.6 0 2.4-1.1 3-2.2.7-1 1.2-1.8 2.2-1.8 1 0 1.5.7 2.2 1.9.7 1.1 1.4 2.4 3 2.5 1.6 0 2.4-1.4 3-2.6.7-1.1 1.2-2.1 2.2-2.2 1 0 1.4.8 2.1 2.3.7 1.3 1.5 2.8 3 2.9h.1c1.6 0 2.4-1.6 3-3 .7-1.3 1.2-2.5 2.2-2.5v-1Z" fill="#000" fill-rule="nonzero" />
    <path fill="#3ECC5F" d="M271.5 438.8h20.8V418h-20.8z" />
    <g transform="rotate(-15 1643.4 -872.7)" fill-rule="nonzero">
      <rect fill="#D8D8D8" width="43.9" height="17.3" rx="2" />
      <g transform="translate(.7 11)" fill="#4A4A4A">
        <rect x="8" width="2.5" height="2.5" rx="1" />
        <rect x="11" width="2.5" height="2.5" rx="1" />
        <rect x="14" width="2.5" height="2.5" rx="1" />
        <rect x="17" width="2.5" height="2.5" rx="1" />
        <rect x="20" width="2.5" height="2.5" rx="1" />
        <rect x="23" width="2.5" height="2.5" rx="1" />
        <rect x="26" width="2.5" height="2.5" rx="1" />
        <rect x="29" width="2.5" height="2.5" rx="1" />
        <rect x="32" width="2.5" height="2.5" rx="1" />
        <path d="M.5 0H7c.3 0 .5.2.5.5V2c0 .3-.2.5-.5.5H.5A.5.5 0 0 1 0 2V.5C0 .2.2 0 .5 0Zm35.1 0H42c.3 0 .5.2.5.5V2c0 .3-.2.5-.5.5h-6.4a.5.5 0 0 1-.5-.5V.5c0-.3.2-.5.5-.5Z" />
      </g>
      <g transform="translate(.7 4.9)" fill="#4A4A4A">
        <path d="M.5 0H3c.2 0 .5.2.5.5V2c0 .3-.3.5-.5.5H.5A.5.5 0 0 1 0 2V.5C0 .2.2 0 .5 0Z" />
        <rect x="3.9" width="2.5" height="2.5" rx="1" />
        <rect x="6.9" width="2.5" height="2.5" rx="1" />
        <rect x="9.9" width="2.5" height="2.5" rx="1" />
        <rect x="12.9" width="2.5" height="2.5" rx="1" />
        <rect x="16" width="2.5" height="2.5" rx="1" />
        <rect x="19" width="2.5" height="2.5" rx="1" />
        <rect x="22" width="2.5" height="2.5" rx="1" />
        <rect x="25" width="2.5" height="2.5" rx="1" />
        <rect x="28" width="2.5" height="2.5" rx="1" />
        <rect x="31" width="2.5" height="2.5" rx="1" />
        <rect x="34" width="2.5" height="2.5" rx="1" />
        <rect x="37" width="2.5" height="2.5" rx="1" />
        <rect x="40" width="2.5" height="2.5" rx="1" />
      </g>
      <g transform="rotate(180 21.6 2.3)" fill="#4A4A4A">
        <path d="M.5 0H3c.2 0 .5.2.5.5V2c0 .3-.3.5-.5.5H.5A.5.5 0 0 1 0 2V.5C0 .2.2 0 .5 0Z" />
        <rect x="3.9" width="2.5" height="2.5" rx="1" />
        <rect x="6.9" width="2.5" height="2.5" rx="1" />
        <rect x="9.9" width="2.5" height="2.5" rx="1" />
        <rect x="12.9" width="2.5" height="2.5" rx="1" />
        <rect x="16" width="2.5" height="2.5" rx="1" />
        <rect x="19" width="2.5" height="2.5" rx="1" />
        <rect x="22" width="2.5" height="2.5" rx="1" />
        <rect x="25" width="2.5" height="2.5" rx="1" />
        <rect x="28" width="2.5" height="2.5" rx="1" />
        <rect x="31" width="2.5" height="2.5" rx="1" />
        <rect x="34" width="2.5" height="2.5" rx="1" />
        <rect x="37" width="2.5" height="2.5" rx="1" />
        <rect x="40" width="2.5" height="2.5" rx="1" />
        <rect x="3.9" width="2.5" height="2.5" rx="1" />
        <rect x="6.9" width="2.5" height="2.5" rx="1" />
        <rect x="9.9" width="2.5" height="2.5" rx="1" />
        <rect x="12.9" width="2.5" height="2.5" rx="1" />
        <rect x="16" width="2.5" height="2.5" rx="1" />
        <rect x="19" width="2.5" height="2.5" rx="1" />
        <rect x="22" width="2.5" height="2.5" rx="1" />
        <rect x="25" width="2.5" height="2.5" rx="1" />
        <rect x="28" width="2.5" height="2.5" rx="1" />
        <rect x="31" width="2.5" height="2.5" rx="1" />
        <rect x="34" width="2.5" height="2.5" rx="1" />
        <rect x="37" width="2.5" height="2.5" rx="1" />
        <rect x="40" width="2.5" height="2.5" rx="1" />
      </g>
      <g fill="#4A4A4A">
        <path d="M1.2 7.9h3.5c.3 0 .5.2.5.5v1.5c0 .3-.2.5-.5.5H1.2a.5.5 0 0 1-.5-.5V8.4c0-.3.3-.5.5-.5Z" />
        <g transform="translate(5.8 7.9)">
          <rect width="2.5" height="2.5" rx="1" />
          <rect x="3" width="2.5" height="2.5" rx="1" />
          <rect x="6" width="2.5" height="2.5" rx="1" />
          <rect x="9" width="2.5" height="2.5" rx="1" />
          <rect x="12" width="2.5" height="2.5" rx="1" />
          <rect x="15" width="2.5" height="2.5" rx="1" />
          <rect x="18" width="2.5" height="2.5" rx="1" />
          <rect x="21" width="2.5" height="2.5" rx="1" />
          <rect x="24" width="2.5" height="2.5" rx="1" />
          <rect x="27" width="2.5" height="2.5" rx="1" />
          <rect x="30" width="2.5" height="2.5" rx="1" />
        </g>
        <path d="M39.4 7.9h3.3c.3 0 .5.2.5.5v1.5c0 .3-.2.5-.5.5h-3.3a.5.5 0 0 1-.5-.5V8.4c0-.3.2-.5.5-.5Z" />
      </g>
      <g transform="translate(.7 14)" fill="#4A4A4A">
        <rect width="2.5" height="2.5" rx="1" />
        <rect x="3" width="2.5" height="2.5" rx="1" />
        <rect x="6" width="2.5" height="2.5" rx="1" />
        <rect x="9" width="2.5" height="2.5" rx="1" />
        <path d="M12.5 0H27c.3 0 .5.2.5.5V2c0 .3-.2.5-.5.5H12.5A.5.5 0 0 1 12 2V.5c0-.3.2-.5.5-.5Zm16 0h1.9c.2 0 .5.2.5.5V2c0 .3-.3.5-.5.5h-2A.5.5 0 0 1 28 2V.5c0-.3.3-.5.6-.5Z" />
        <rect x="31.3" width="2.5" height="2.5" rx="1" />
        <rect x="34.3" width="2.5" height="2.5" rx="1" />
        <rect x="40" width="2.5" height="2.5" rx="1" />
        <path d="M37.2 1V.6c0-.3.2-.5.5-.5h1.5c.3 0 .5.2.5.5v.6h-2.5Zm2.5.5V2c0 .3-.2.5-.5.5h-1.5a.5.5 0 0 1-.5-.5v-.5h2.5Z" />
      </g>
      <rect fill="#4A4A4A" x=".9" y=".6" width="42.2" height="1.1" rx=".6" />
      <rect fill="#D8D8D8" opacity=".1" x="1.9" y=".7" width="2.4" height="1" rx=".4" />
      <rect fill="#D8D8D8" opacity=".1" x="5.2" y=".7" width="2.4" height="1" rx=".4" />
      <rect fill="#D8D8D8" opacity=".1" x="7.7" y=".7" width="2.4" height="1" rx=".4" />
      <rect fill="#D8D8D8" opacity=".1" x="10.2" y=".7" width="2.4" height="1" rx=".4" />
      <rect fill="#D8D8D8" opacity=".1" x="12.7" y=".7" width="2.4" height="1" rx=".4" />
      <rect fill="#D8D8D8" opacity=".1" x="15.8" y=".7" width="2.4" height="1" rx=".4" />
      <rect fill="#D8D8D8" opacity=".1" x="18.3" y=".7" width="2.4" height="1" rx=".4" />
      <rect fill="#D8D8D8" opacity=".1" x="20.8" y=".7" width="2.4" height="1" rx=".4" />
      <rect fill="#D8D8D8" opacity=".1" x="23.3" y=".7" width="2.4" height="1" rx=".4" />
      <rect fill="#D8D8D8" opacity=".1" x="26.4" y=".7" width="2.4" height="1" rx=".4" />
      <rect fill="#D8D8D8" opacity=".1" x="28.9" y=".7" width="2.4" height="1" rx=".4" />
      <rect fill="#D8D8D8" opacity=".1" x="31.4" y=".7" width="2.4" height="1" rx=".4" />
      <rect fill="#D8D8D8" opacity=".1" x="34.5" y=".7" width="2.4" height="1" rx=".4" />
      <rect fill="#D8D8D8" opacity=".1" x="37" y=".7" width="2.4" height="1" rx=".4" />
      <rect fill="#D8D8D8" opacity=".1" x="39.5" y=".7" width="2.4" height="1" rx=".4" />
    </g>
    <path d="M302.6 425.8h-.3v-.2a2.6 2.6 0 1 0-2.6-4.5l-.2-.1a2.6 2.6 0 1 0-4.5-2.6h-.2a2.6 2.6 0 1 0-5.1 0h-.2a2.6 2.6 0 1 0-4.5 2.6 10.4 10.4 0 1 0 17.3 10 2.6 2.6 0 1 0 .3-5.2" fill="#44D860" />
    <path fill="#3ECC5F" d="M271.5 407.6h20.8v-10.4h-20.8z" />
    <path d="M297.4 403.7a1.3 1.3 0 1 0-.1-2.6 1.3 1.3 0 0 0-.6-2.6c-.2 0-.5.1-.7.3l-.1-.1.2-.8a1.3 1.3 0 0 0-2.5-.5 5.2 5.2 0 1 0 0 10 1.3 1.3 0 1 0 2.3-1.3 1.3 1.3 0 0 0 2.1-.8c.1-.6-.2-1.2-.8-1.5v-.1h.2" fill="#44D860" />
    <path d="M302.6 365.4a1.4 1.4 0 0 1-.5 0 1.3 1.3 0 0 1-.4-.4l-.2-.2a1.3 1.3 0 0 1 0-1.2v-.2l.4-.4a1.3 1.3 0 0 1 .5-.2h.5l.4.2.2.2.2.2a1.3 1.3 0 0 1 .2.7 1.3 1.3 0 0 1-.6 1.1 1.3 1.3 0 0 1-.7.2m10.4-.6a1.3 1.3 0 0 1-1-.6c-.2-.2-.3-.5-.3-.7a1.3 1.3 0 0 1 .6-1.1 1.3 1.3 0 0 1 1-.2 1.3 1.3 0 0 1 .6.4c.3.2.4.5.4.9a1.5 1.5 0 0 1-.2.7l-.2.2-.2.2-.7.2" fill="#000" fill-rule="nonzero" />
    <g transform="translate(641.2 356.5)">
      <path d="M87.9 39.2c0-5.9-7.3-11.4-18.5-14.8C72 13 70.8 3.9 65.8 1c-1.3-.7-2.6-1-4-1v4c.7 0 1.4.2 2 .5 2.4 1.4 3.5 6.7 2.7 13.6-.2 1.6-.6 3.4-1 5.2-3.7-.9-7.5-1.5-11.3-2a87.4 87.4 0 0 0-7.5-8.9C52.6 7 58 4 61.7 4V0C57 0 50.5 3.5 44 9.6 37.4 3.6 30.9.1 26 .1v4c3.7 0 9.2 3 15 8.3a84.7 84.7 0 0 0-7.4 9c-3.8.4-7.6 1-11.3 2-.5-1.9-.8-3.6-1-5.3-.8-6.8.2-12.1 2.6-13.6a4 4 0 0 1 2.1-.4V0a8 8 0 0 0-4 1c-5 2.9-6.2 12-3.6 23.3C7.3 28 0 33.4 0 39.2 0 45 7.3 50.5 18.5 53.9 15.9 65.3 17 74.4 22 77.3c1.2.7 2.6 1 4 1 5 0 11.4-3.5 17.9-9.6 6.5 6 13 9.5 17.9 9.5a8 8 0 0 0 4-1c5-2.9 6.2-12 3.6-23.3 11-3.4 18.4-9 18.4-14.7Zm-23.4-12c-.7 2.4-1.5 4.8-2.4 7-1.5-2.8-3.1-5.7-5-8.4 2.6.4 5 .8 7.4 1.4Zm-8.2 19.1a96 96 0 0 1-4.3 6.9c-5.4.4-10.8.4-16.1 0a100 100 0 0 1-8-14 94 94 0 0 1 8-14c5.3-.4 10.7-.4 16 0a97.7 97.7 0 0 1 8.1 14c-1.1 2.4-2.3 4.8-3.7 7.1Zm5.8-2.3c1 2.4 1.8 4.8 2.5 7.1-2.4.6-5 1-7.4 1.4 1.8-2.7 3.4-5.6 5-8.5ZM44 63a73.9 73.9 0 0 1-5-5.7 114 114 0 0 0 9.9 0 70 70 0 0 1-5 5.7ZM30.6 52.5a83 83 0 0 1-7.3-1.4c.7-2.3 1.5-4.7 2.4-7a79.7 79.7 0 0 0 5 8.4ZM44 15.2l5 5.8c-3.4-.2-6.7-.2-10 0 1.6-2 3.2-4 5-5.8ZM30.6 25.8c-1.8 2.8-3.4 5.6-4.9 8.5-1-2.4-1.8-4.8-2.5-7.1a90 90 0 0 1 7.4-1.4ZM14.4 48.2C8.1 45.5 4 42 4 39.2s4-6.4 10.4-9.1c1.6-.7 3.3-1.3 5-1.8 1 3.7 2.4 7.4 4 10.9a85 85 0 0 0-4 10.9l-5-1.9ZM24 74c-2.4-1.4-3.5-6.8-2.6-13.6l.9-5.3c3.7 1 7.5 1.6 11.4 2 2.2 3.1 4.7 6.1 7.4 9-5.8 5.4-11.3 8.3-15 8.3-.7 0-1.4-.1-2-.4Zm42.5-13.7c.9 6.8-.2 12.2-2.6 13.6a4 4 0 0 1-2 .5c-3.8 0-9.3-3-15.1-8.4 2.7-2.8 5.1-5.8 7.4-9 3.8-.3 7.6-1 11.4-2l1 5.3Zm7-12-5 1.8a86.2 86.2 0 0 0-4-10.9 85 85 0 0 0 3.9-10.8 59 59 0 0 1 5 1.8c6.4 2.7 10.5 6.3 10.5 9 0 2.9-4.1 6.4-10.5 9.1Z" fill="#61DAFB" fill-rule="nonzero" />
      <circle fill="#61DAFB" fill-rule="nonzero" cx="43.9" cy="39.2" r="8.2" />
    </g>
  </g>
</svg>