<svg xmlns="http://www.w3.org/2000/svg" width="1088" height="688" viewBox="0 0 1088 688">
  <g fill="none" fill-rule="evenodd">
    <g fill-rule="nonzero">
      <path d="M961.8 454.5c-5.3 45.1-16.2 81.4-31.2 110.3-20 38.5-54.3 54-84.8 70.3-8.8 4.7-18 8.6-27.5 12-55.6 19.2-117.8 14-166.7 4a657.2 657.2 0 0 0-134-14c-15.5 0-293.1 5.4-360.7-131.5a343.4 343.4 0 0 1-32.3-125.3C113 238.2 177 144.8 259.4 83.8 415.4-31.6 629-26.8 782.8 91.7c102.4 79 198.2 198.3 179 362.8Z" fill="#3F3D56" />
      <path d="M930.6 564.8A184.1 184.1 0 0 1 825.3 657c-55.6 19.3-117.8 14.2-166.7 4A657.3 657.3 0 0 0 478.3 649c-100.2 7.3-253.8-6.4-321.4-143.3L326 178l63 161.6 20 51.6 55.4-76L493 276l130.2 149.3L660 344l254.8 208 14.2 11.5 1.6 1.3Z" fill="#F2F2F2" />
      <path fill="#000" opacity=".1" d="m302 283 26-57 36 83-31-60zM554.5 647.8c-10-.4-20-.6-30-.6L409 391.2l145.5 256.6ZM464.4 315.2 493 293l130 150-132-128zM852.8 645c-8.8 4.8-18 8.7-27.5 12L623.2 425.3 852.8 645Z" />
      <circle fill="#F2F2F2" cx="482" cy="102" r="3" />
      <circle fill="#F2F2F2" cx="399" cy="205" r="3" />
      <circle fill="#F2F2F2" cx="602" cy="223" r="2" />
      <circle fill="#F2F2F2" cx="182" cy="268" r="2" />
      <circle fill="#F2F2F2" cx="614" cy="99" r="2" />
      <circle fill="#F2F2F2" cx="738" cy="195" r="2" />
      <circle fill="#F2F2F2" cx="860" cy="347" r="2" />
      <path fill="#F2F2F2" d="M306 121.2h-2.8v-2.7h-1.4v2.7H299v1.5h2.8v2.8h1.4v-2.8h2.8zM848 424.2h-2.8v-2.7h-1.4v2.7H841v1.5h2.8v2.8h1.4v-2.8h2.8z" />
      <path d="M1088 614c0 16.6-243.6 74-544 74S0 630.6 0 614s243.6 14 544 14 544-30.6 544-14Z" fill="#3F3D56" />
      <path d="M1088 614c0 16.6-243.6 74-544 74S0 630.6 0 614s243.6 14 544 14 544-30.6 544-14Z" fill="#000" opacity=".1" />
      <ellipse fill="#3F3D56" cx="544" cy="614" rx="544" ry="30" />
      <path d="M568 572c0 33.1-14.8 24-33 24s-33 9.1-33-24 33-96 33-96 33 62.9 33 96Z" fill="#FF6584" />
      <path d="M550 584.7c0 15-6.7 10.9-15 10.9s-15 4.1-15-11c0-15 15-43.6 15-43.6s15 28.6 15 43.7Z" fill="#000" opacity=".1" />
      <rect fill="#2F2E41" x="489" y="605" width="92" height="18" rx="9" />
      <rect fill="#2F2E41" x="489" y="587" width="92" height="18" rx="9" />
      <path d="M137 490.6c0 55.3 34.7 100 77.6 100" fill="#3F3D56" />
      <path d="M214.6 590.7c0-56 38.8-101.3 86.7-101.3M165.1 495.6c0 52.5 22.2 95 49.5 95" fill="#6C63FF" />
      <path d="M214.6 590.7c0-71.5 44.8-129.4 100.2-129.4" fill="#3F3D56" />
      <path d="M198.3 591.4s11-.3 14.3-2.7c3.4-2.4 17-5.2 17.8-1.4.8 3.8 16.5 18.8 4.1 19-12.4 0-28.9-2-32.2-4-3.3-2-4-11-4-11Z" fill="#A8A8A8" />
      <path d="M234.7 605c-12.4 0-28.9-2-32.2-4-2.5-1.6-3.5-7-3.8-9.6h-.4s.7 8.9 4 10.9 19.8 4 32.2 4c3.6 0 4.8-1.4 4.8-3.3-.6 1.2-2 1.9-4.6 2Z" fill="#000" opacity=".2" />
      <path d="M721.4 527c0 38.1 23.9 68.9 53.4 68.9" fill="#3F3D56" />
      <path d="M774.8 595.9c0-38.5 26.6-69.6 59.5-69.6M740.8 530.5c0 36.2 15.2 65.4 34 65.4" fill="#6C63FF" />
      <path d="M774.8 595.9c0-49.1 30.7-89 68.8-89" fill="#3F3D56" />
      <path d="M763.5 596.4s7.6-.3 9.9-1.9c2.3-1.6 11.6-3.5 12.2-1 .5 2.7 11.4 13 2.8 13-8.5.2-19.8-1.2-22.1-2.6-2.3-1.4-2.8-7.5-2.8-7.5Z" fill="#A8A8A8" />
      <path d="M788.6 605.7c-8.6 0-19.9-1.4-22.1-2.7-1.8-1.1-2.5-4.9-2.7-6.6h-.3s.5 6 2.8 7.5a72.2 72.2 0 0 0 22.1 2.7c2.5 0 3.3-1 3.3-2.2-.4.8-1.3 1.3-3.1 1.3Z" fill="#000" opacity=".2" />
      <path d="M893.8 618.7s11.4-1.7 14.5-4.6c3.2-2.8 17-7.4 18.2-3.6 1.4 3.8 19.5 17.4 6.7 19-13 1.7-30.2 1.7-33.9 0-3.6-1.7-5.5-10.8-5.5-10.8Z" fill="#A8A8A8" />
      <path d="M933.2 628.2c-12.8 1.6-30.1 1.6-33.8 0-2.8-1.4-4.5-7-5.2-9.5h-.4s1.9 9.1 5.5 10.8c3.7 1.7 21 1.7 33.9 0 3.7-.4 4.8-1.9 4.5-3.8-.4 1.2-1.7 2.1-4.5 2.5Z" fill="#000" opacity=".2" />
      <path d="M614.3 618s9.6-1.5 12.2-4c2.6-2.4 14.3-6.3 15.4-3 1 3.2 16.4 14.7 5.6 16a92.7 92.7 0 0 1-28.6 0c-3-1.4-4.6-9-4.6-9Z" fill="#A8A8A8" />
      <path d="M647.5 625.9a92.7 92.7 0 0 1-28.5 0c-2.4-1.1-3.9-5.9-4.4-8h-.3s1.5 7.7 4.6 9.1a92.5 92.5 0 0 0 28.6 0c3.1-.3 4-1.6 3.8-3.2-.3 1-1.4 1.8-3.8 2.1Z" fill="#000" opacity=".2" />
      <path d="M122.4 613.1s7.4-1.1 9.5-3c2-1.9 11.1-5 12-2.4.9 2.5 12.8 11.5 4.3 12.6-8.4 1-19.8 1-22.2 0-2.4-1.2-3.6-7.2-3.6-7.2Z" fill="#A8A8A8" />
      <path d="M148.3 619.3c-8.5 1.1-19.8 1.1-22.3 0-1.8-.8-3-4.5-3.4-6.2h-.2s1.2 6 3.6 7.1a72.1 72.1 0 0 0 22.2 0c2.5-.3 3.2-1.2 3-2.5-.2.8-1.1 1.4-3 1.6Z" fill="#000" opacity=".2" />
      <path d="M383.7 601.4c0 30.2-42.1 20.8-93.7 20.8s-93 9.4-93-20.8c0-30.3 42-36.8 93.6-36.8 51.6 0 93.1 6.5 93.1 36.8Z" fill="#000" opacity=".1" />
      <path d="M383.7 594c0 30.1-42.1 20.8-93.7 20.8s-93 9.3-93-20.9 42-36.8 93.6-36.8c51.6 0 93.1 6.6 93.1 36.8Z" fill="#3F3D56" />
    </g>
    <path fill="#FFF" d="M360.2 475.8H452v37.1h-91.8z" />
    <path d="M277.1 597c-7.8 0-15-4.1-18.9-10.9a21.8 21.8 0 0 0 19 32.8H299v-21.8H277Z" fill="#3ECC5F" />
    <path d="M375.4 481.6 452 477v-11a21.9 21.9 0 0 0-21.9-21.8h-98.3l-2.8-4.8a3.1 3.1 0 0 0-5.4 0l-2.8 4.8-2.7-4.8a3.1 3.1 0 0 0-5.5 0l-2.7 4.8-2.7-4.8a3.1 3.1 0 0 0-5.5 0l-2.7 4.8-4.6-4.6a3.1 3.1 0 0 0-5.3 1.5l-1.5 5.5-5.7-1.5a3.1 3.1 0 0 0-3.8 3.9l1.5 5.7-5.6 1.5a3.2 3.2 0 0 0-1.4 5.2l4.5 4.6-4.7 2.8a3.2 3.2 0 0 0 0 5.4l4.7 2.8-4.7 2.7a3.2 3.2 0 0 0 0 5.4l4.7 2.8-4.7 2.7a3.2 3.2 0 0 0 0 5.5l4.7 2.7-4.7 2.7a3.2 3.2 0 0 0 0 5.5l4.7 2.7-4.7 2.8a3.2 3.2 0 0 0 0 5.4l4.7 2.8-4.7 2.7a3.2 3.2 0 0 0 0 5.5l4.7 2.7-4.7 2.7a3.2 3.2 0 0 0 0 5.5l4.7 2.7-4.7 2.8a3.2 3.2 0 0 0 0 5.4l4.7 2.8-4.7 2.7a3.2 3.2 0 0 0 0 5.4l4.7 2.8-4.7 2.7a3.2 3.2 0 0 0 0 5.5l4.7 2.7-4.7 2.7a3.2 3.2 0 0 0 0 5.5l4.7 2.7-4.7 2.8a3.2 3.2 0 0 0 0 5.4l4.7 2.8a21.9 21.9 0 0 0 21.9 21.8H430a21.8 21.8 0 0 0 21.9-21.8v-87.5l-76.6-4.8a11.6 11.6 0 0 1 0-23.2" fill="#3ECC5F" />
    <path fill="#3ECC5F" d="M408.3 618.9H441v-43.7h-32.7z" />
    <path d="M462.9 591.6h-.7l-.1-.4a5.5 5.5 0 1 0-5.4-9.4l-.4-.4a5.5 5.5 0 1 0-9.4-5.4h-.5a5.5 5.5 0 1 0-10.8 0h-.4a5.5 5.5 0 1 0-9.4 5.4 21.8 21.8 0 1 0 36.4 21 5.4 5.4 0 1 0 .7-10.8" fill="#44D860" />
    <path fill="#3ECC5F" d="M419.2 553.4H452v-21.9h-32.8z" />
    <path d="M462.9 545.2a2.7 2.7 0 1 0-.4-5.5v-.2a2.7 2.7 0 1 0-2.7-4.7l-.2-.2c.4-.5.5-1 .5-1.6a2.7 2.7 0 0 0-5.2-1.1 11 11 0 1 0 0 21 2.7 2.7 0 1 0 4.7-2.7l.2-.1c.5.3 1 .5 1.6.5a2.7 2.7 0 0 0 1-5.2l.1-.3h.4" fill="#44D860" />
    <path d="M320.8 479.6a2.7 2.7 0 0 1-2.7-2.8 8.2 8.2 0 0 0-16.4 0 2.7 2.7 0 1 1-5.4 0 13.7 13.7 0 1 1 27.3 0 2.7 2.7 0 0 1-2.8 2.8" fill="#000" fill-rule="nonzero" />
    <path d="M364.5 619h65.6a21.8 21.8 0 0 0 21.9-22v-76.4h-65.6a21.8 21.8 0 0 0-21.9 21.8V619Z" fill="#FFFF50" />
    <path d="M435.6 554.4h-54.7a1.1 1.1 0 1 1 0-2.1h54.7a1.1 1.1 0 0 1 0 2.1m0 21.9h-54.7a1.1 1.1 0 0 1 0-2.2h54.7a1.1 1.1 0 0 1 0 2.2m0 21.9h-54.7a1.1 1.1 0 1 1 0-2.2h54.7a1.1 1.1 0 0 1 0 2.2m0-54.5h-54.7a1.1 1.1 0 1 1 0-2.2h54.7a1.1 1.1 0 0 1 0 2.2m0 21.7h-54.7a1.1 1.1 0 1 1 0-2.2h54.7a1.1 1.1 0 0 1 0 2.2m0 21.8h-54.7a1.1 1.1 0 1 1 0-2.2h54.7a1.1 1.1 0 0 1 0 2.2m16.4-101c-3.5.2-5 3.6-6.5 6.5-1.4 3.1-2.6 5.2-4.4 5.1-2.1 0-3.3-2.4-4.5-4.9-1.5-2.8-3.1-6-6.5-5.9-3.4.1-5 3-6.4 5.6-1.5 2.8-2.5 4.5-4.5 4.4-2.1 0-3.2-2-4.5-4.2-1.5-2.4-3.1-5.2-6.5-5-3.3 0-4.9 2.5-6.3 4.7-1.5 2.4-2.5 3.8-4.5 3.7-2.2 0-3.3-1.6-4.6-3.5-1.5-2-3-4.3-6.4-4.2-3.3.1-4.9 2.1-6.3 4-1.3 1.6-2.4 3-4.6 3a1.1 1.1 0 0 0 0 2.1c3.2.1 4.9-2 6.3-3.8 1.3-1.6 2.4-3 4.6-3.1 2.1-.1 3.1 1.2 4.6 3.3 1.4 2 3 4.3 6.3 4.4 3.4.1 5-2.4 6.4-4.7 1.3-2 2.4-3.7 4.6-3.8 2 0 3 1.5 4.5 4 1.4 2.5 3 5.2 6.3 5.3 3.4.1 5-2.9 6.5-5.5 1.3-2.3 2.4-4.4 4.5-4.5 2 0 3 1.7 4.5 4.7 1.4 2.8 3 6 6.4 6h.2c3.3 0 4.9-3.3 6.3-6.2 1.3-2.7 2.4-5.2 4.4-5.3v-2.1Z" fill="#000" fill-rule="nonzero" />
    <path fill="#3ECC5F" d="M342.7 618.9h43.7v-43.7h-43.7z" />
    <g transform="rotate(-15 2189 -1120.4)" fill-rule="nonzero">
      <rect fill="#D8D8D8" width="92.4" height="36.5" rx="2" />
      <g transform="translate(1.5 23)" fill="#4A4A4A">
        <rect x="16.8" width="5.3" height="5.3" rx="1" />
        <rect x="23.1" width="5.3" height="5.3" rx="1" />
        <rect x="29.4" width="5.3" height="5.3" rx="1" />
        <rect x="35.8" width="5.3" height="5.3" rx="1" />
        <rect x="42.1" width="5.3" height="5.3" rx="1" />
        <rect x="48.4" width="5.3" height="5.3" rx="1" />
        <rect x="54.7" width="5.3" height="5.3" rx="1" />
        <rect x="61.1" width="5.3" height="5.3" rx="1" />
        <rect x="67.4" width="5.3" height="5.3" rx="1" />
        <path d="M1.1 0h13.4c.6 0 1.1.5 1.1 1.1v3.1c0 .6-.5 1.1-1 1.1H1c-.6 0-1.1-.5-1.1-1V1C0 .5.5 0 1.1 0ZM75 0h13.4c.6 0 1.1.5 1.1 1.1v3.1c0 .6-.5 1.1-1 1.1H75c-.6 0-1.1-.5-1.1-1V1c0-.6.5-1.1 1.1-1.1Z" />
      </g>
      <g transform="translate(1.5 10.3)" fill="#4A4A4A">
        <path d="M1.1 0h5.1c.6 0 1.1.5 1.1 1.1v3.1c0 .6-.5 1.1-1.1 1.1H1.1a1.1 1.1 0 0 1-1.1-1V1C0 .5.5 0 1.1 0Z" />
        <rect x="8.3" width="5.3" height="5.3" rx="1" />
        <rect x="14.6" width="5.3" height="5.3" rx="1" />
        <rect x="21" width="5.3" height="5.3" rx="1" />
        <rect x="27.3" width="5.3" height="5.3" rx="1" />
        <rect x="33.6" width="5.3" height="5.3" rx="1" />
        <rect x="39.9" width="5.3" height="5.3" rx="1" />
        <rect x="46.2" width="5.3" height="5.3" rx="1" />
        <rect x="52.6" width="5.3" height="5.3" rx="1" />
        <rect x="58.9" width="5.3" height="5.3" rx="1" />
        <rect x="65.2" width="5.3" height="5.3" rx="1" />
        <rect x="71.5" width="5.3" height="5.3" rx="1" />
        <rect x="77.9" width="5.3" height="5.3" rx="1" />
        <rect x="84.2" width="5.3" height="5.3" rx="1" />
      </g>
      <g transform="rotate(180 45.5 4.8)" fill="#4A4A4A">
        <path d="M1.1 0h5.1c.6 0 1.1.5 1.1 1.1v3.1c0 .6-.5 1.1-1 1.1H1c-.6 0-1.1-.5-1.1-1V1C0 .5.5 0 1.1 0Z" />
        <rect x="8.3" width="5.3" height="5.3" rx="1" />
        <rect x="14.6" width="5.3" height="5.3" rx="1" />
        <rect x="20.9" width="5.3" height="5.3" rx="1" />
        <rect x="27.3" width="5.3" height="5.3" rx="1" />
        <rect x="33.6" width="5.3" height="5.3" rx="1" />
        <rect x="39.9" width="5.3" height="5.3" rx="1" />
        <rect x="46.2" width="5.3" height="5.3" rx="1" />
        <rect x="52.6" width="5.3" height="5.3" rx="1" />
        <rect x="58.9" width="5.3" height="5.3" rx="1" />
        <rect x="65.2" width="5.3" height="5.3" rx="1" />
        <rect x="71.5" width="5.3" height="5.3" rx="1" />
        <rect x="77.9" width="5.3" height="5.3" rx="1" />
        <rect x="84.2" width="5.3" height="5.3" rx="1" />
        <rect x="8.3" width="5.3" height="5.3" rx="1" />
        <rect x="14.6" width="5.3" height="5.3" rx="1" />
        <rect x="20.9" width="5.3" height="5.3" rx="1" />
        <rect x="27.3" width="5.3" height="5.3" rx="1" />
        <rect x="33.6" width="5.3" height="5.3" rx="1" />
        <rect x="39.9" width="5.3" height="5.3" rx="1" />
        <rect x="46.2" width="5.3" height="5.3" rx="1" />
        <rect x="52.6" width="5.3" height="5.3" rx="1" />
        <rect x="58.9" width="5.3" height="5.3" rx="1" />
        <rect x="65.2" width="5.3" height="5.3" rx="1" />
        <rect x="71.5" width="5.3" height="5.3" rx="1" />
        <rect x="77.9" width="5.3" height="5.3" rx="1" />
        <rect x="84.2" width="5.3" height="5.3" rx="1" />
      </g>
      <g fill="#4A4A4A">
        <path d="M2.6 16.6H10c.6 0 1.1.5 1.1 1v3.2c0 .6-.5 1.1-1 1.1H2.5c-.6 0-1-.5-1-1v-3.2c0-.6.4-1.1 1-1.1Z" />
        <g transform="translate(12.2 16.6)">
          <rect width="5.3" height="5.3" rx="1" />
          <rect x="6.3" width="5.3" height="5.3" rx="1" />
          <rect x="12.7" width="5.3" height="5.3" rx="1" />
          <rect x="19" width="5.3" height="5.3" rx="1" />
          <rect x="25.3" width="5.3" height="5.3" rx="1" />
          <rect x="31.6" width="5.3" height="5.3" rx="1" />
          <rect x="37.9" width="5.3" height="5.3" rx="1" />
          <rect x="44.3" width="5.3" height="5.3" rx="1" />
          <rect x="50.6" width="5.3" height="5.3" rx="1" />
          <rect x="56.9" width="5.3" height="5.3" rx="1" />
          <rect x="63.2" width="5.3" height="5.3" rx="1" />
        </g>
        <path d="M83 16.6h7c.6 0 1 .5 1 1v3.2c0 .6-.4 1.1-1 1.1h-7a1.1 1.1 0 0 1-1-1v-3.2c0-.6.4-1.1 1-1.1Z" />
      </g>
      <g transform="translate(1.5 29.6)" fill="#4A4A4A">
        <rect width="5.3" height="5.3" rx="1" />
        <rect x="6.3" width="5.3" height="5.3" rx="1" />
        <rect x="12.7" width="5.3" height="5.3" rx="1" />
        <rect x="19" width="5.3" height="5.3" rx="1" />
        <path d="M26.4 0h30.4c.6 0 1.1.5 1.1 1.1v3.1c0 .6-.5 1.1-1.1 1.1H26.4a1.1 1.1 0 0 1-1.1-1V1A1.1 1.1 0 0 1 26.4 0ZM60 0h4c.5 0 1 .5 1 1.1v3.1c0 .6-.5 1.1-1 1.1h-4a1.1 1.1 0 0 1-1.1-1V1a1.1 1.1 0 0 1 1-1.1Z" />
        <rect x="66" width="5.3" height="5.3" rx="1" />
        <rect x="72.3" width="5.3" height="5.3" rx="1" />
        <rect x="84.2" width="5.3" height="5.3" rx="1" />
        <path d="M78.3 2.3V1c0-.6.4-1.1 1-1.1h3.2c.6 0 1 .5 1 1.1v1.2h-5.3ZM83.6 3v1.2c0 .6-.5 1.1-1.1 1.1h-3.2a1.1 1.1 0 0 1-1-1V3h5.3Z" />
      </g>
      <rect fill="#4A4A4A" x="1.9" y="1.2" width="88.9" height="2.4" rx="1.1" />
      <rect fill="#D8D8D8" opacity=".1" x="4.1" y="1.6" width="5" height="1.6" rx=".7" />
      <rect fill="#D8D8D8" opacity=".1" x="10.9" y="1.6" width="5" height="1.6" rx=".7" />
      <rect fill="#D8D8D8" opacity=".1" x="16.2" y="1.6" width="5" height="1.6" rx=".7" />
      <rect fill="#D8D8D8" opacity=".1" x="21.4" y="1.6" width="5" height="1.6" rx=".7" />
      <rect fill="#D8D8D8" opacity=".1" x="26.7" y="1.6" width="5" height="1.6" rx=".7" />
      <rect fill="#D8D8D8" opacity=".1" x="33.2" y="1.6" width="5" height="1.6" rx=".7" />
      <rect fill="#D8D8D8" opacity=".1" x="38.5" y="1.6" width="5" height="1.6" rx=".7" />
      <rect fill="#D8D8D8" opacity=".1" x="43.7" y="1.6" width="5" height="1.6" rx=".7" />
      <rect fill="#D8D8D8" opacity=".1" x="49" y="1.6" width="5" height="1.6" rx=".7" />
      <rect fill="#D8D8D8" opacity=".1" x="55.5" y="1.6" width="5" height="1.6" rx=".7" />
      <rect fill="#D8D8D8" opacity=".1" x="60.8" y="1.6" width="5" height="1.6" rx=".7" />
      <rect fill="#D8D8D8" opacity=".1" x="66" y="1.6" width="5" height="1.6" rx=".7" />
      <rect fill="#D8D8D8" opacity=".1" x="72.6" y="1.6" width="5" height="1.6" rx=".7" />
      <rect fill="#D8D8D8" opacity=".1" x="77.8" y="1.6" width="5" height="1.6" rx=".7" />
      <rect fill="#D8D8D8" opacity=".1" x="83.1" y="1.6" width="5" height="1.6" rx=".7" />
    </g>
    <path d="M408.3 591.6h-.7l-.2-.4a5.5 5.5 0 1 0-5.4-9.4l-.3-.4a5.5 5.5 0 1 0-9.4-5.4h-.5a5.5 5.5 0 1 0-10.8 0h-.5a5.5 5.5 0 1 0-9.4 5.4 21.8 21.8 0 1 0 36.5 21 5.4 5.4 0 1 0 .7-10.8" fill="#44D860" />
    <path fill="#3ECC5F" d="M342.7 553.4h43.7v-21.9h-43.7z" />
    <path d="M397.3 545.2a2.7 2.7 0 1 0-.3-5.5v-.2a2.7 2.7 0 1 0-2.8-4.7l-.2-.2c.4-.5.6-1 .6-1.6a2.7 2.7 0 0 0-5.3-1.1 11 11 0 1 0 0 21 2.7 2.7 0 1 0 4.7-2.7l.2-.1c.5.3 1 .5 1.7.5a2.7 2.7 0 0 0 1-5.2v-.3h.4" fill="#44D860" />
    <path d="M408.3 464.6a2.7 2.7 0 0 1-2-.8l-.3-.5a2.7 2.7 0 0 1-.3-2.5l.3-.5a2.6 2.6 0 0 1 1.2-1 2.7 2.7 0 0 1 2.6.2l.4.4.3.4a2.8 2.8 0 0 1 .5 1.5 2.8 2.8 0 0 1-1.2 2.3c-.5.3-1 .5-1.6.5m22-1.4a2.8 2.8 0 0 1-2.4-1.2c-.3-.5-.4-1-.4-1.5a2.8 2.8 0 0 1 1.7-2.6l.5-.1h1a2.6 2.6 0 0 1 1.4.7 2.8 2.8 0 0 1 .8 2.5 2.8 2.8 0 0 1-.8 1.4l-.4.3c-.4.3-1 .5-1.5.5" fill="#000" fill-rule="nonzero" />
  </g>
</svg>