<svg xmlns="http://www.w3.org/2000/svg" width="1128" height="660" viewBox="0 0 1128 660">
  <g fill="none" fill-rule="evenodd">
    <ellipse fill="#F2F2F2" fill-rule="nonzero" cx="320.7" cy="319.5" rx="320.7" ry="319.5" />
    <ellipse fill="#3F3D56" fill-rule="nonzero" cx="558.5" cy="632.6" rx="513.5" ry="27.4" />
    <ellipse fill="#000" fill-rule="nonzero" opacity=".2" cx="557.5" cy="624.2" rx="459.6" ry="21.9" />
    <path fill="#3F3D56" fill-rule="nonzero" d="M130.9 151.8h839.2v49.8H130.9z" />
    <path d="M130.9 606a21.5 21.5 0 0 0 21.6 21.6h796c12 0 21.6-9.6 21.6-21.5V176.7H131v429.4Zm817.6-489h-796c-12 0-21.6 9.6-21.6 21.5v38.2H970v-38.2c0-11.9-9.7-21.5-21.6-21.5Z" fill="#3F3D56" fill-rule="nonzero" />
    <path d="M948.5 117h-796c-12 0-21.6 9.6-21.6 21.5v38.2H970v-38.2c0-11.9-9.7-21.5-21.6-21.5Z" fill="#000" fill-rule="nonzero" opacity=".2" />
    <ellipse fill="#3F3D56" fill-rule="nonzero" cx="180.8" cy="146.8" rx="13" ry="12.9" />
    <ellipse fill="#3F3D56" fill-rule="nonzero" cx="216.8" cy="146.8" rx="13" ry="12.9" />
    <ellipse fill="#3F3D56" fill-rule="nonzero" cx="252.8" cy="146.8" rx="13" ry="12.9" />
    <rect fill="#606060" fill-rule="nonzero" x="167.9" y="212.5" width="336.7" height="384.3" rx="5.3" />
    <rect fill="#2E8555" fill-rule="nonzero" x="602.5" y="271.3" width="283.7" height="21.9" rx="5.5" />
    <rect fill="#2E8555" fill-rule="nonzero" x="536.5" y="350.9" width="415.6" height="14.9" rx="5.5" />
    <rect fill="#2E8555" fill-rule="nonzero" x="536.5" y="394.7" width="415.6" height="14.9" rx="5.5" />
    <rect fill="#2E8555" fill-rule="nonzero" x="536.5" y="438.5" width="415.6" height="14.9" rx="5.5" />
    <rect fill="#2E8555" fill-rule="nonzero" x="536.5" y="482.3" width="415.6" height="14.9" rx="5.5" />
    <rect fill="#3ECC5F" fill-rule="nonzero" x="864.2" y="550" width="87.9" height="25.9" rx="7" />
    <path d="M1052.2 503.8c2.6-4.6 4-9.8 4-15.2 0-13.7-8.6-24.8-19.1-24.8-10.6 0-19 11-19 24.8-.1 5.4 1.2 10.6 3.9 15.2a31 31 0 0 0 0 30.4 31 31 0 0 0 0 30.4 31 31 0 0 0 0 30.4c-2.7 4.6-4 9.9-4 15.2 0 13.7 8.5 24.9 19 24.9 10.6 0 19.2-11.2 19.2-24.9 0-5.3-1.4-10.6-4-15.2a31 31 0 0 0 0-30.4 31 31 0 0 0 0-30.4 31 31 0 0 0 0-30.4Z" fill="#3F3D56" fill-rule="nonzero" />
    <ellipse fill="#3F3D56" fill-rule="nonzero" cx="1037.1" cy="458.2" rx="19.1" ry="24.9" />
    <ellipse fill="#3F3D56" fill-rule="nonzero" cx="1037.1" cy="427.8" rx="19.1" ry="24.9" />
    <path d="M1108.5 219.8c2.6-3.3 5-6.7 7-10.4l-50-8.2 54.1.4a90.9 90.9 0 0 0 1.8-72l-72.7 37.5 67-49a91.4 91.4 0 0 0-162 7.7 90.7 90.7 0 0 0 11.2 94 91 91 0 0 0-10.4 16.6l65 33.7-69.3-23.2a90.8 90.8 0 0 0 14.7 85.5 90.7 90.7 0 0 0 9.8 123c35 32.2 89 32.2 124 0a90.7 90.7 0 0 0 9.8-123c26-33 26-79.5 0-112.6Z" fill="#3ECC5F" />
    <path d="M945.4 276.1c0 20.4 6.8 40.2 19.5 56.3a90.7 90.7 0 0 0 9.8 123c35 32.2 89 32.2 124 0a90.7 90.7 0 0 0 9.8-123c12.2-15.5-163.1-66.5-163.1-56.3Z" fill="#000" fill-rule="nonzero" opacity=".1" />
    <path fill="#FFF" d="M329.8 341.4h111.4v44.9H329.8z" />
    <path d="M229 488c-9.4 0-18.2-5-22.9-13.2a26.3 26.3 0 0 0 23 39.6h26.5V488H229Z" fill="#3ECC5F" />
    <path d="m348.4 348.5 92.8-5.8v-13.2a26.5 26.5 0 0 0-26.5-26.4H295.4l-3.4-5.8a3.8 3.8 0 0 0-6.6 0l-3.3 5.8-3.3-5.8a3.8 3.8 0 0 0-6.7 0l-3.3 5.8-3.3-5.8a3.8 3.8 0 0 0-6.6 0l-3.3 5.8h-.1l-5.5-5.5a3.8 3.8 0 0 0-6.4 1.7l-1.8 6.8-7-1.9a3.8 3.8 0 0 0-4.6 4.7l1.9 6.9-6.8 1.8a3.8 3.8 0 0 0-1.7 6.3l5.5 5.5-5.8 3.4a3.8 3.8 0 0 0 0 6.6l5.8 3.3-5.8 3.3a3.8 3.8 0 0 0 0 6.6l5.8 3.3-5.8 3.3a3.8 3.8 0 0 0 0 6.6l5.8 3.3-5.8 3.3a3.8 3.8 0 0 0 0 6.6l5.8 3.3-5.8 3.3a3.8 3.8 0 0 0 0 6.6l5.8 3.4-5.8 3.2a3.8 3.8 0 0 0 0 6.7l5.8 3.3-5.8 3.3a3.8 3.8 0 0 0 0 6.6l5.8 3.3-5.8 3.3a3.8 3.8 0 0 0 0 6.6l5.8 3.3-5.8 3.3a3.8 3.8 0 0 0 0 6.6l5.8 3.3-5.8 3.3a3.8 3.8 0 0 0 0 6.6l5.8 3.3-5.8 3.3a3.8 3.8 0 0 0 0 6.6l5.8 3.3-5.8 3.3a3.8 3.8 0 0 0 0 6.6l5.8 3.3a26.5 26.5 0 0 0 26.5 26.4h159a26.5 26.5 0 0 0 26.6-26.4V382.3l-92.8-5.7a14 14 0 0 1 0-28.1" fill="#3ECC5F" />
    <path fill="#3ECC5F" d="M388.2 514.4h39.7v-52.8h-39.7z" />
    <path d="m454.5 481.4-.9.1-.1-.6a6.6 6.6 0 1 0-6.6-11.3l-.4-.5a6.6 6.6 0 0 0-5.6-10.5 6.6 6.6 0 0 0-5.8 4l-.6-.2c.4-2.5-.7-5.1-3-6.6a6.7 6.7 0 0 0-10.1 6.6l-.6.2a6.6 6.6 0 1 0-11.4 6.5 26.3 26.3 0 0 0 21 45.2c11.1-1 20.4-9 23.2-19.8a6.6 6.6 0 0 0 6.8-9.6 6.6 6.6 0 0 0-6-3.5" fill="#44D860" />
    <path fill="#3ECC5F" d="M401.4 435.2h39.8v-26.4h-39.8z" />
    <path d="M454.5 425.3a3.3 3.3 0 0 0 0-6.6h-.5v-.3a3.3 3.3 0 0 0-1.3-6.3c-.7 0-1.4.2-2 .7l-.2-.3c.4-.5.6-1.2.6-2 0-1.5-1-2.9-2.6-3.2-1.6-.3-3.1.5-3.7 2a13.2 13.2 0 0 0-14.4 20.3c3.2 4.6 9 6.6 14.4 5a3.3 3.3 0 0 0 6.3-1.2c0-.7-.2-1.4-.6-2l.2-.2a3.3 3.3 0 0 0 5.2-2c.4-1.5-.5-3-2-3.7l.1-.3h.5" fill="#44D860" />
    <path d="M282.1 346a3.3 3.3 0 0 1-3.3-3.3 10 10 0 0 0-19.9 0 3.3 3.3 0 0 1-6.6 0 16.5 16.5 0 0 1 25-14.6c5.1 3 8.3 8.6 8.1 14.6 0 1.8-1.5 3.3-3.3 3.3" fill="#000" fill-rule="nonzero" />
    <path d="M335.1 514.4h79.6a26.5 26.5 0 0 0 26.5-26.4v-92.5h-79.6a26.6 26.6 0 0 0-26.5 26.5v92.4Z" fill="#FFFF50" />
    <path d="M421.3 436.5H355a1.3 1.3 0 1 1 0-2.6h66.3a1.3 1.3 0 1 1 0 2.6m0 26.4H355a1.3 1.3 0 1 1 0-2.6h66.3a1.3 1.3 0 1 1 0 2.6m0 26.4H355a1.3 1.3 0 1 1 0-2.6h66.3a1.3 1.3 0 1 1 0 2.6m0-65.8H355a1.3 1.3 0 1 1 0-2.6h66.3a1.3 1.3 0 0 1 0 2.6m0 26.2H355a1.3 1.3 0 1 1 0-2.6h66.3a1.3 1.3 0 1 1 0 2.6m0 26.4H355a1.3 1.3 0 1 1 0-2.6h66.3a1.3 1.3 0 1 1 0 2.6m19.9-122c-4.1.1-6 4.2-7.8 7.8-1.8 3.8-3.2 6.2-5.4 6.1-2.5 0-4-2.9-5.5-5.9-1.7-3.4-3.7-7.3-7.9-7.1-4 .1-6 3.7-7.7 6.8-1.8 3.3-3 5.4-5.4 5.3-2.6-.1-4-2.4-5.5-5-1.8-3-3.8-6.3-7.9-6.2-4 .1-6 3.1-7.6 5.8-1.9 2.8-3.1 4.5-5.6 4.4-2.6 0-4-2-5.5-4.2-1.7-2.5-3.7-5.3-7.8-5.1-3.9.1-5.8 2.6-7.6 4.8-1.6 2-2.9 3.7-5.6 3.6a1.3 1.3 0 0 0-1.2 1.9c.2.4.7.7 1.1.7 4 .1 6-2.4 7.8-4.6 1.6-2 3-3.7 5.6-3.8 2.5 0 3.7 1.5 5.6 4 1.7 2.5 3.6 5.2 7.5 5.4 4.2.1 6.1-3 7.9-5.7 1.6-2.4 3-4.5 5.5-4.6 2.4 0 3.7 1.8 5.5 4.9 1.7 2.9 3.7 6.2 7.7 6.3 4.1.2 6.1-3.4 7.9-6.6 1.5-2.8 2.9-5.4 5.4-5.5 2.4 0 3.6 2.1 5.5 5.7 1.7 3.4 3.6 7.2 7.7 7.4h.2c4 0 6-4 7.7-7.7 1.5-3.2 3-6.2 5.4-6.3v-2.6Z" fill="#000" fill-rule="nonzero" />
    <path fill="#3ECC5F" d="M308.6 514.4h53v-52.8h-53z" />
    <path d="m388.2 481.4-.9.1-.1-.6a6.6 6.6 0 1 0-6.6-11.3l-.4-.5a6.6 6.6 0 0 0-5.6-10.5 6.6 6.6 0 0 0-5.8 4l-.6-.2c.4-2.5-.7-5.1-3-6.6a6.7 6.7 0 0 0-10.1 6.6l-.6.2a6.6 6.6 0 1 0-11.4 6.5 26.3 26.3 0 0 0 21 45.2c11.1-1 20.5-9 23.2-19.8a6.6 6.6 0 0 0 6.8-9.5 6.6 6.6 0 0 0-6-3.6" fill="#44D860" />
    <path fill="#3ECC5F" d="M308.6 435.2h53v-26.4h-53z" />
    <path d="M375 425.3a3.3 3.3 0 0 0 3-5 3.3 3.3 0 0 0-3.5-1.6v-.3a3.3 3.3 0 1 0-3.4-5.6l-.2-.3c.4-.5.7-1.2.7-2 0-1.5-1.1-2.9-2.7-3.2-1.5-.3-3 .5-3.7 2a13.2 13.2 0 0 0-14.4 20.3c3.2 4.6 9 6.6 14.4 5a3.3 3.3 0 0 0 6.4-1.2c0-.7-.3-1.4-.7-2l.2-.2c.6.4 1.3.7 2 .7 1.6 0 3-1.1 3.3-2.7.3-1.5-.5-3-2-3.7v-.3h.5" fill="#44D860" />
    <path d="M388.2 327.8a3.6 3.6 0 0 1-1.3-.2 3.5 3.5 0 0 1-1-.7l-.5-.5a3.3 3.3 0 0 1-.3-3.1 3.5 3.5 0 0 1 1.2-1.5 3.5 3.5 0 0 1 2.5-.5 3.2 3.2 0 0 1 1.7.9l.4.5a3.4 3.4 0 0 1-.4 4.2 3.3 3.3 0 0 1-2.3 1m26.5-1.7c-.9 0-1.7-.4-2.4-1a3.3 3.3 0 0 1-1-2.3 3.4 3.4 0 0 1 1.5-2.8 3.5 3.5 0 0 1 1.2-.5h1.3a3.2 3.2 0 0 1 1.7 1 3.4 3.4 0 0 1 .4 4.1c0 .2-.2.4-.4.5a3.3 3.3 0 0 1-2.3 1" fill="#000" fill-rule="nonzero" />
  </g>
</svg>